<svg xmlns="http://www.w3.org/2000/svg" viewBox="0 0 512 512" width="60" height="60"><path d="M437.022 74.984C388.67 26.63 324.381 0 256 0 187.624 0 123.338 26.63 74.984 74.984S0 187.624 0 256c0 68.388 26.63 132.678 74.984 181.028C123.335 485.375 187.621 512 256 512c68.385 0 132.673-26.625 181.021-74.972C485.372 388.679 512 324.389 512 256c0-68.377-26.628-132.664-74.978-181.016zm-11.314 350.73C380.381 471.039 320.111 496 256 496c-64.106 0-124.374-24.961-169.703-70.286C40.965 380.386 16 320.113 16 256c0-64.102 24.965-124.37 70.297-169.703C131.63 40.965 191.898 16 256 16c64.108 0 124.378 24.965 169.708 70.297C471.037 131.628 496 191.896 496 256c0 64.115-24.963 124.387-70.292 169.714z" data-original="#000000" class="active-path" data-old_color="#000000fill:#000000fill:#000000fill:#000000fill:#000000fill:#000000fill:#000000fill:#000000fill:#000000fill:#000000fill:#000000fill:#000000fill:#000000fill:#000000fill:#000000fill:#000000fill:#000000fill:#000000fill:#000000fill:#000000fill:#000000fill:#6b4c0ffill:#6B4C0Ffill:#000000fill:#000000fill:#000000fill:#000000fill:#000000fill:#000000fill:#000000fill:#000000fill:#000000fill:#000000fill:#000000fill:#000000fill:#000000fill:#000000fill:#000000fill:#000000fill:#000000fill:#000000fill:#000000" fill="currentColor"/><path d="M430.038 114.969a7.999 7.999 0 0 0-11.253-1.172 7.999 7.999 0 0 0-1.172 11.252C447.526 161.919 464 208.426 464 256c0 55.567-21.635 107.803-60.919 147.085C363.797 442.367 311.563 464 256 464c-51.26 0-100.505-18.807-138.663-52.956a8 8 0 0 0-10.67 11.922C147.763 459.745 200.797 480 256 480c59.837 0 116.089-23.297 158.394-65.601C456.701 372.095 480 315.84 480 256c0-51.233-17.744-101.319-49.962-141.031zM48 256c0-114.691 93.309-208 208-208 51.26 0 100.504 18.808 138.662 52.959a8 8 0 0 0 11.296-.625 8 8 0 0 0-.625-11.296C364.237 52.256 311.203 32 256 32c-59.829 0-116.08 23.301-158.389 65.611C55.301 139.921 32 196.171 32 256c0 51.239 17.744 101.328 49.963 141.038a7.983 7.983 0 0 0 6.217 2.96 8 8 0 0 0 6.208-13.041C64.474 350.088 48 303.58 48 256z" data-original="#000000" class="active-path" data-old_color="#000000fill:#000000fill:#000000fill:#000000fill:#000000fill:#000000fill:#000000fill:#000000fill:#000000fill:#000000fill:#000000fill:#000000fill:#000000fill:#000000fill:#000000fill:#000000fill:#000000fill:#000000fill:#000000fill:#000000fill:#000000fill:#6b4c0ffill:#6B4C0Ffill:#000000fill:#000000fill:#000000fill:#000000fill:#000000fill:#000000fill:#000000fill:#000000fill:#000000fill:#000000fill:#000000fill:#000000fill:#000000fill:#000000fill:#000000fill:#000000fill:#000000fill:#000000fill:#000000" fill="currentColor"/><path d="M190.165 301.683c-9.963 7.207-15.45 17.038-15.45 27.681s5.487 20.474 15.45 27.681c9.182 6.641 21.255 10.299 33.996 10.299s24.814-3.658 33.996-10.299c9.963-7.207 15.451-17.038 15.451-27.681s-5.487-20.474-15.451-27.681c-9.182-6.641-21.255-10.299-33.996-10.299s-24.815 3.658-33.996 10.299zm67.441 27.681c0 11.915-15.316 21.98-33.446 21.98-18.129 0-33.446-10.065-33.446-21.98s15.316-21.98 33.446-21.98c18.13 0 33.446 10.066 33.446 21.98z" data-original="#000000" class="active-path" data-old_color="#000000fill:#000000fill:#000000fill:#000000fill:#000000fill:#000000fill:#000000fill:#000000fill:#000000fill:#000000fill:#000000fill:#000000fill:#000000fill:#000000fill:#000000fill:#000000fill:#000000fill:#000000fill:#000000fill:#000000fill:#000000fill:#6b4c0ffill:#6B4C0Ffill:#000000fill:#000000fill:#000000fill:#000000fill:#000000fill:#000000fill:#000000fill:#000000fill:#000000fill:#000000fill:#000000fill:#000000fill:#000000fill:#000000fill:#000000fill:#000000fill:#000000fill:#000000fill:#000000" fill="currentColor"/><path d="M319.421 139.739a8 8 0 0 0-7.423-5.017H227.7c-19.621 0-39.336 7.288-54.092 19.995-15.092 12.996-23.748 30.545-23.748 48.147 0 34.097 21.703 59.868 53.707 65.13.022.511.056 1.02.1 1.525-17.9 2.344-34.269 9.666-46.85 21.092-14.078 12.785-22.151 29.579-22.151 46.076 0 32.792 36.719 56.592 87.31 56.592 42.855 0 87.183-24.679 87.183-65.978 0-26.438-7.826-40.802-32.233-59.131l-1.465-1.091c-6.519-4.843-9.81-7.736-11.438-9.337.908-.99 2.825-2.794 6.866-5.953 16.838-13.146 25.739-29.733 25.739-47.972 0-10.578-2.203-20.519-6.417-29.13l27.325-26.189a8.004 8.004 0 0 0 1.885-8.759zm-44.759 27.686a8.001 8.001 0 0 0-1.18 10.124c4.673 7.217 7.143 16.3 7.143 26.268 0 13.13-6.772 25.357-19.588 35.362-11.025 8.617-13.721 12.595-13.736 20.272a7.993 7.993 0 0 0 .5 2.801c1.297 3.492 4.874 7.833 18.108 17.664l1.432 1.066c20.508 15.401 25.816 24.924 25.816 46.318 0 17.891-11.656 29.421-21.435 35.942-13.373 8.919-31.506 14.035-49.749 14.035-20.771 0-39.49-4.46-52.708-12.559-8.486-5.199-18.601-14.283-18.601-28.033 0-29.984 32.696-51.069 63.233-51.95a7.998 7.998 0 0 0 7.075-11.256c-.969-2.171-1.439-4.471-1.439-7.031 0-1.351.129-2.742.383-4.134a8 8 0 0 0-7.435-9.427c-27.885-1.516-46.621-21.62-46.621-50.025 0-12.939 6.629-26.069 18.188-36.023 11.896-10.244 27.806-16.119 43.651-16.119h64.39l-17.427 16.705z" data-original="#000000" class="active-path" data-old_color="#000000fill:#000000fill:#000000fill:#000000fill:#000000fill:#000000fill:#000000fill:#000000fill:#000000fill:#000000fill:#000000fill:#000000fill:#000000fill:#000000fill:#000000fill:#000000fill:#000000fill:#000000fill:#000000fill:#000000fill:#000000fill:#6b4c0ffill:#6B4C0Ffill:#000000fill:#000000fill:#000000fill:#000000fill:#000000fill:#000000fill:#000000fill:#000000fill:#000000fill:#000000fill:#000000fill:#000000fill:#000000fill:#000000fill:#000000fill:#000000fill:#000000fill:#000000fill:#000000" fill="currentColor"/><path d="M203.421 163.899c-8.114 4.101-13.623 12.48-15.112 22.99-1.361 9.603.62 20.295 5.578 30.106 8.384 16.592 22.903 26.611 36.553 26.611 4.091 0 8.104-.9 11.85-2.793 16.244-8.209 20.432-31.532 9.535-53.097-4.958-9.811-12.391-17.748-20.93-22.348-9.346-5.035-19.359-5.57-27.474-1.469zm19.885 15.555c5.603 3.018 10.793 8.66 14.238 15.478 6.508 12.879 5.354 27.646-2.471 31.6-7.825 3.955-20.398-3.874-26.907-16.754-3.446-6.818-4.91-14.343-4.017-20.644.438-3.088 1.863-8.618 6.488-10.955 1.481-.749 3.03-1.039 4.543-1.039 3.213.001 6.259 1.308 8.126 2.314zm136.692 67.268a8 8 0 0 0 8-8v-32h32a8 8 0 0 0 0-16h-32v-32a8 8 0 0 0-16 0v32h-32a8 8 0 0 0 0 16h32v32a8 8 0 0 0 8 8z" data-original="#000000" class="active-path" data-old_color="#000000fill:#000000fill:#000000fill:#000000fill:#000000fill:#000000fill:#000000fill:#000000fill:#000000fill:#000000fill:#000000fill:#000000fill:#000000fill:#000000fill:#000000fill:#000000fill:#000000fill:#000000fill:#000000fill:#000000fill:#000000fill:#6b4c0ffill:#6B4C0Ffill:#000000fill:#000000fill:#000000fill:#000000fill:#000000fill:#000000fill:#000000fill:#000000fill:#000000fill:#000000fill:#000000fill:#000000fill:#000000fill:#000000fill:#000000fill:#000000fill:#000000fill:#000000fill:#000000" fill="currentColor"/></svg>