<svg xmlns="http://www.w3.org/2000/svg" viewBox="0 0 512 512" width="512" height="512"><path d="M429.392 227.24c.633-74.343-62.428-142.461-140.558-151.846l-15.863-1.931c-.408-.05-.821-.074-1.232-.074-16.192 0-27.449 9.466-30.113 25.322-1.867 11.119 1.549 18.634 4.746 22.982 7.524 10.231 19.576 11.881 27.54 12.97l.159.021c1.777.246 3.454.476 4.632.742 61.973 13.847 80.649 33.309 90.829 94.65.177 1.074.286 2.86.392 4.586.271 4.468.724 11.947 4.118 18.819 4.702 9.517 13.56 14.758 24.941 14.758 1.961 0 4.037-.164 6.165-.489 10.582-1.608 18.361-7.611 21.907-16.899 2.552-6.685 2.376-13.487 2.234-17.666l.101-5.855.002-.09zm-20.5 6.382c.374 10.917-1.459 13.149-6.814 13.963-1.118.169-2.16.256-3.099.256-5.318 0-7.909-1.423-8.697-14.414-.137-2.247-.277-4.569-.628-6.688-6.048-36.437-15.45-59.101-31.442-75.784-15.956-16.647-38.404-27.245-75.047-35.432-2.002-.45-4.094-.738-6.308-1.044l-.17-.022c-5.378-.736-11.474-1.571-13.882-4.847-.469-.636-1.893-2.574-1.064-7.517 1.174-6.987 5.168-8.206 9.427-8.298l15.216 1.851c68.138 8.185 123.129 67.112 122.609 131.374l-.105 6.076c-.004.174-.002.352.004.526z" data-original="#000000" class="active-path" data-old_color="#000000fill:#000000fill:#000000fill:#000000fill:#000000fill:#000000fill:#000000fill:#6b4c0ffill:#6B4C0Ffill:#000000fill:#000000fill:#000000fill:#000000fill:#000000fill:#000000fill:#000000fill:#000000fill:#000000fill:#000000fill:#000000fill:#000000fill:#000000fill:#000000fill:#000000fill:#000000fill:#000000fill:#000000fill:#000000fill:#000000fill:#000000fill:#000000fill:#000000fill:#000000fill:#000000fill:#000000fill:#000000fill:#000000fill:#000000" fill="#6b4c0f"/><path d="M505.392 230.922l-.007-.16c-.071-1.597-.139-3.105-.123-4.269.687-55.663-22.515-112.307-63.656-155.406C400.462 27.986 344.968 2.189 289.26.31L276.943.003a10.692 10.692 0 0 0-.254-.003c-18.487 0-30.625 11.378-31.678 29.697-.662 11.571 4.356 20.643 14.13 25.546 6.883 3.453 14.555 4.013 19.15 4.348 1.653.119 3.364.243 4.508.418C386.67 75.983 432.3 123 445.538 227.699c.165 1.303.198 3.374.229 5.384.078 4.815.208 12.874 3.517 20.304 4.569 10.255 13.763 16.033 25.966 16.267l.589.007.12.001c8.724 0 16.141-2.937 21.451-8.493 8.925-9.335 8.357-21.922 7.982-30.247zm-22.727 16.154c-.515.541-2.08 2.175-6.651 2.189l-.447-.005c-6.446-.124-9.176-2.446-9.404-16.506-.041-2.553-.083-5.192-.388-7.61-7.329-57.958-24.216-98.833-53.142-128.634-28.934-29.81-69.205-47.814-126.74-56.663-1.957-.3-4.081-.453-6.131-.601-14.089-1.028-14.646-3.855-14.387-8.382.497-8.632 4.83-10.444 11.195-10.465l12.093.302c105.826 3.572 197.509 99.62 196.202 205.532-.022 1.745.057 3.539.142 5.439l.007.165c.259 5.721.552 12.204-2.349 15.239zM456.64 358.889c-2.12-1.619-4.523-3.455-6.682-5.193a9.583 9.583 0 0 0-.404-.31l-43.981-31.94-.13-.094c-17.304-12.154-33.182-18.063-48.545-18.063-21.405 0-39.759 11.356-54.552 33.754-4.755 7.204-8.983 8.175-12.492 8.175-3.495 0-7.885-1.154-12.698-3.338-47.782-21.668-81.859-54.789-101.282-98.445-8.907-20.015-4.127-28.362 7.136-36.012 10.733-7.285 33.065-22.443 31.447-52.124-1.18-21.721-28.147-60.058-36.384-71.29-8.243-11.241-36.711-48.493-56.967-55.94-12.93-4.755-26.466-4.818-40.229-.187-31.772 10.681-54.693 29.696-66.289 54.991-11.243 24.527-10.851 53.046 1.137 82.473C47.753 243.975 92.81 312.551 149.643 369.17c66.662 66.416 133.261 110.588 203.603 135.04 6.969 2.423 20.975 6.657 28.893 7.701.443.059.891.088 1.338.088 19.931 0 41.914-8.376 61.897-23.586 19.781-15.055 34.632-34.526 41.82-54.827 14.31-40.407-12.687-61.041-30.554-74.697zm11.327 67.891c-11.924 33.684-51.708 64.38-83.799 64.817-5.982-.924-17.73-4.395-24.222-6.652-67.382-23.424-131.463-66.021-195.904-130.224-54.888-54.683-98.432-120.986-129.424-197.07-9.811-24.08-10.325-47-1.486-66.279 9.188-20.046 27.946-35.315 54.247-44.157 4.625-1.555 9.183-2.335 13.642-2.335 4.457 0 8.815.778 13.046 2.333 7.733 2.842 25.914 19.344 47.556 48.856 21.658 29.534 32.011 51.979 32.465 60.335.914 16.768-10.631 26.059-22.537 34.141-21.464 14.581-26.147 34.593-14.315 61.181 21.514 48.354 59.027 84.937 111.492 108.728 7.544 3.426 14.652 5.162 21.126 5.162 11.993 0 21.924-5.833 29.514-17.333 10.932-16.55 23.208-24.595 37.531-24.595 11.006 0 23.03 4.681 36.756 14.312l43.711 31.744c2.305 1.851 4.74 3.71 6.892 5.355 19.972 15.264 32.412 27.108 23.709 51.681z" data-original="#000000" class="active-path" data-old_color="#000000fill:#000000fill:#000000fill:#000000fill:#000000fill:#000000fill:#000000fill:#6b4c0ffill:#6B4C0Ffill:#000000fill:#000000fill:#000000fill:#000000fill:#000000fill:#000000fill:#000000fill:#000000fill:#000000fill:#000000fill:#000000fill:#000000fill:#000000fill:#000000fill:#000000fill:#000000fill:#000000fill:#000000fill:#000000fill:#000000fill:#000000fill:#000000fill:#000000fill:#000000fill:#000000fill:#000000fill:#000000fill:#000000fill:#000000" fill="#6b4c0f"/><path d="M357.229 234.149c.147-19.568-9.833-41.469-26.727-58.632-17.172-17.441-38.169-27.169-57.566-26.706l-.024.001c-6.526.165-26.387.67-33.269 20.642-3.948 11.447-1.279 19.691 1.655 24.591 6.071 10.139 16.676 13.023 25.243 14.404 20.069 3.22 29.101 12.982 31.173 33.689 1.685 16.897 14.053 29.16 29.41 29.16 1.183 0 2.368-.071 3.488-.208 8.317-.989 27.523-6.571 26.617-36.941zm-29.06 16.688a8.66 8.66 0 0 1-1.046.062c-5.551 0-8.576-5.416-9.111-10.789-2.973-29.714-19.203-47.144-48.233-51.802-6.315-1.017-9.599-2.435-10.98-4.742-.383-.642-1.551-2.593.13-7.465 1.918-5.57 6.389-6.694 14.501-6.9 13.831-.302 29.305 7.184 42.537 20.622 13.23 13.44 21.03 30.007 20.865 44.317-.002.151 0 .302.005.453.497 15.154-5.443 15.86-8.668 16.244zM242.73 379.486c-18.461-13.773-36.586-29.584-55.409-48.338-14.47-14.416-28.074-30.104-40.438-46.63-3.375-4.511-9.766-5.432-14.277-2.057-4.51 3.374-5.431 9.766-2.057 14.276 12.953 17.313 27.209 33.752 42.375 48.86 19.518 19.446 38.361 35.879 57.609 50.238a10.154 10.154 0 0 0 6.091 2.025c3.109 0 6.18-1.418 8.183-4.1 3.367-4.516 2.438-10.905-2.077-14.274zM123.327 249.673a460.108 460.108 0 0 1-5.331-8.979c-2.82-4.876-9.059-6.543-13.935-3.724-4.876 2.82-6.544 9.059-3.724 13.935 1.805 3.123 3.68 6.28 5.57 9.381a10.192 10.192 0 0 0 14.017 3.403c4.81-2.93 6.334-9.206 3.403-14.016z" data-original="#000000" class="active-path" data-old_color="#000000fill:#000000fill:#000000fill:#000000fill:#000000fill:#000000fill:#000000fill:#6b4c0ffill:#6B4C0Ffill:#000000fill:#000000fill:#000000fill:#000000fill:#000000fill:#000000fill:#000000fill:#000000fill:#000000fill:#000000fill:#000000fill:#000000fill:#000000fill:#000000fill:#000000fill:#000000fill:#000000fill:#000000fill:#000000fill:#000000fill:#000000fill:#000000fill:#000000fill:#000000fill:#000000fill:#000000fill:#000000fill:#000000fill:#000000" fill="#6b4c0f"/></svg>